<svg width="19" height="20" viewBox="0 0 19 20" fill="none" xmlns="http://www.w3.org/2000/svg">
<path d="M5.87383 4.09008e-05C4.85042 4.09008e-05 3.92126 0.20834 3.21505 0.571657C2.52189 0.928345 1.99872 1.47041 1.97969 2.15236H1.97847V5.9838C1.42117 6.4856 0.915444 7.20565 0.540996 8.06962C0.134218 9.00815 -0.0435526 9.94473 0.00899294 10.7373C0.0601471 11.5083 0.343459 12.1999 0.950229 12.4931L0.964306 12.4995C0.976665 12.5053 0.988778 12.5107 1.00138 12.5162L1.97843 12.9395V17.3925H1.97965C2.00728 18.066 2.52786 18.6016 3.21513 18.9552C3.92134 19.3186 4.85083 19.5269 5.87383 19.5269C6.89675 19.5269 7.82628 19.3186 8.53254 18.9552C9.2198 18.6016 9.74039 18.066 9.76801 17.3925H9.76924V16.3168L11.5226 17.0765L11.5316 17.0803L14.5828 18.4025L14.8987 18.5394L14.9333 18.5548V18.5536C15.5668 18.8078 16.2727 18.5427 16.8758 18.0484C17.4901 17.5449 18.0507 16.7749 18.4577 15.8359C18.8648 14.897 19.0436 13.9607 18.9911 13.1683C18.9395 12.3903 18.6502 11.6946 18.0319 11.406V11.4047L17.6815 11.2525L14.6301 9.93032L9.7692 7.824V2.25598C9.77022 2.23429 9.77043 2.2126 9.77043 2.1907C9.77043 2.17781 9.76961 2.16513 9.7692 2.15232C9.75017 1.47041 9.22705 0.928304 8.53381 0.571698C7.82763 0.208299 6.8972 0 5.87379 0L5.87383 4.09008e-05ZM4.73563 0.868351C4.73686 0.868146 4.73825 0.868597 4.73948 0.868351C4.46353 1.00082 4.29317 1.18088 4.29317 1.37989C4.29317 1.78626 5.00082 2.11528 5.87383 2.11528C6.74685 2.11528 7.45449 1.78626 7.45449 1.37989C7.45449 1.18088 7.28409 1.00082 7.00814 0.868351C7.4628 0.954003 7.86455 1.08795 8.18346 1.25205C8.74894 1.54301 9.00577 1.89233 9.00577 2.1907C9.00577 2.48904 8.74894 2.83717 8.18346 3.12809C7.61798 3.41906 6.79092 3.61537 5.87383 3.61537C4.95674 3.61537 4.12968 3.41906 3.56424 3.12813C2.99877 2.83725 2.7432 2.48916 2.7432 2.19079C2.7432 1.89246 2.99877 1.54305 3.56424 1.25209C3.8823 1.08848 4.28261 0.954167 4.73567 0.868474L4.73563 0.868351ZM1.97843 7.113V12.1056L1.30573 11.8141C1.03244 11.6956 0.814527 11.3222 0.772499 10.6874C0.730348 10.0527 0.878613 9.2149 1.24312 8.37405C1.45109 7.89402 1.7062 7.46674 1.97843 7.113ZM9.00446 7.18461V17.3362C9.00446 17.634 8.7491 17.9838 8.18342 18.2748C7.61774 18.5658 6.79031 18.7621 5.87379 18.7621C4.95731 18.7621 4.12985 18.5659 3.5642 18.2748C2.99856 17.9839 2.74316 17.634 2.74316 17.3362V7.30345L4.94536 10.5646L3.43759 11.0915L8.39827 16.3041L6.28171 11.9753L7.26007 11.4905L5.61675 8.04527C5.70195 8.04826 5.78732 8.05039 5.87383 8.05039C6.89679 8.05039 7.82628 7.84209 8.53262 7.47877C8.7018 7.39169 8.86033 7.2931 9.00446 7.18461ZM9.7692 8.65785L13.0021 10.0595L9.7692 10.6643V8.65785ZM17.4615 12.0455C17.5472 12.0469 17.6245 12.0632 17.693 12.0929C17.9667 12.2115 18.1855 12.585 18.2276 13.2195C18.2512 13.5761 18.2139 13.9968 18.1124 14.446C18.1 14.1421 18.0027 13.916 17.8209 13.8372C17.448 13.6756 16.8637 14.1935 16.5164 14.9945C16.1692 15.7955 16.191 16.576 16.5637 16.7376C16.7458 16.8165 16.9779 16.7334 17.2083 16.5342C16.9498 16.916 16.6678 17.2309 16.3912 17.4576C15.8993 17.8607 15.4769 17.956 15.2031 17.8374C14.9294 17.7188 14.7106 17.3453 14.6686 16.7107C14.6265 16.0762 14.7758 15.2399 15.1405 14.3985C15.5052 13.5571 16.0145 12.8758 16.5063 12.4726C16.8752 12.1703 17.2043 12.0414 17.4616 12.0454L17.4615 12.0455ZM11.1798 12.3998C11.143 12.4771 11.107 12.5553 11.0724 12.6351C10.6656 13.5737 10.4865 14.509 10.5391 15.3015C10.5517 15.4918 10.5787 15.6769 10.6209 15.8527L9.7692 15.4844V12.4509L11.1798 12.3998Z" fill="white"/>
</svg>
