<svg width="16" height="19" viewBox="0 0 16 19" fill="none" xmlns="http://www.w3.org/2000/svg">
<path d="M2.0255 5.22352L3.625 3.62402L5.2245 5.22352C5.73025 5.72927 5.984 5.98302 6.117 6.30415C6.25 6.62527 6.25 6.98402 6.25 7.6989V18.499H4.5C2.84975 18.499 2.0255 18.499 1.51275 17.9863C1 17.4735 1 16.6493 1 14.999V7.6989C1 6.98315 1 6.62615 1.133 6.30415C1.266 5.98302 1.51975 5.72927 2.0255 5.22352Z" stroke="white" stroke-linecap="round" stroke-linejoin="round"/>
<path d="M3.625 3.62819V3.27819C3.625 2.20719 3.625 1.67169 3.9575 1.33919C4.29175 1.00669 4.82725 1.00669 5.9 1.00669H10.7598C11.3775 1.00669 12.179 0.907813 12.5929 1.47044C13.0313 2.06894 12.6567 2.89144 12.8466 3.55294C12.9044 3.75419 13.0479 3.90906 13.1791 4.06656L15 6.24969M15 6.24969H6.25M15 6.24969V14.9997C15 16.6499 15 17.4742 14.4872 17.9869C13.9745 18.4997 13.1503 18.4997 11.5 18.4997H6.25" stroke="white" stroke-linecap="round" stroke-linejoin="round"/>
<path d="M6.25 10.6245C6.6665 11.062 7.77513 11.041 8.42613 10.8686C8.65293 10.8058 8.8934 10.8127 9.11624 10.8884C9.33909 10.964 9.534 11.105 9.67563 11.293L10.2776 12.0823C10.6233 12.5364 11.1474 12.7516 11.6636 12.6519L12.4249 12.5058C12.8431 12.4253 13.2596 12.6283 13.5449 12.9923C14.433 14.1245 15 14.1245 15 14.1245" stroke="white" stroke-linecap="round" stroke-linejoin="round"/>
</svg>
