<svg width="24" height="24" viewBox="0 0 24 24" fill="none" xmlns="http://www.w3.org/2000/svg">
<path fill-rule="evenodd" clip-rule="evenodd" d="M9.85706 12.8577C9.62975 12.8577 9.41176 12.948 9.25104 13.1088C9.09034 13.2695 9.00006 13.4875 9.00006 13.7148C9.00006 13.9421 9.09034 14.1601 9.25104 14.3208L13.5367 18.6065C13.6974 18.7672 13.9154 18.8575 14.1427 18.8575C14.37 18.8575 14.588 18.7672 14.7487 18.6065C14.9094 18.4457 14.9997 18.2277 14.9997 18.0005C14.9997 17.7732 14.9094 17.5552 14.7487 17.3944L10.4631 13.1088C10.3024 12.948 10.0844 12.8577 9.85706 12.8577Z" fill="white"/>
<path fill-rule="evenodd" clip-rule="evenodd" d="M9.85706 8.14307C9.62975 8.1431 9.41176 8.23343 9.25104 8.39418C9.09034 8.55492 9.00006 8.7729 9.00006 9.0002C9.00006 9.22749 9.09034 9.44548 9.25104 9.60622L13.5367 13.8919C13.6974 14.0526 13.9154 14.1429 14.1427 14.1429C14.37 14.1429 14.588 14.0526 14.7487 13.8919C14.9094 13.7311 14.9997 13.5131 14.9997 13.2859C14.9997 13.0586 14.9094 12.8406 14.7487 12.6798L10.4631 8.39418C10.3024 8.23343 10.0844 8.1431 9.85706 8.14307Z" fill="white"/>
<path fill-rule="evenodd" clip-rule="evenodd" d="M8.63844 0.00251511C8.49621 -0.00840151 8.35351 0.0163324 8.22327 0.0745007L0.509086 3.50302C0.33868 3.57876 0.197623 3.708 0.107293 3.87114C0.0169637 4.03428 -0.0177141 4.22241 0.00853533 4.40703L0.865666 10.4069C0.884769 10.5415 0.935587 10.6696 1.01393 10.7806C1.09227 10.8917 1.19589 10.9825 1.31624 11.0456C1.43659 11.1087 1.57022 11.1423 1.70611 11.1436C1.842 11.145 1.97625 11.1139 2.09779 11.0531L4.28582 9.95997V23.1434C4.28584 23.3707 4.37615 23.5887 4.53689 23.7494C4.69763 23.9102 4.91563 24.0005 5.14295 24.0005H18.857C19.0844 24.0005 19.3024 23.9102 19.4631 23.7494C19.6238 23.5887 19.7142 23.3707 19.7142 23.1434V9.95997L21.9022 11.0531C22.0238 11.1139 22.158 11.1449 22.2939 11.1436C22.4298 11.1423 22.5634 11.1087 22.6838 11.0456C22.8041 10.9825 22.9077 10.8917 22.9861 10.7806C23.0644 10.6696 23.1152 10.5415 23.1343 10.4069L23.9915 4.40703C24.0177 4.22241 23.983 4.03428 23.8927 3.87114C23.8024 3.708 23.6613 3.57876 23.4909 3.50302L15.7767 0.0745007C15.6462 0.0164962 15.5033 -0.00798489 15.3609 0.00329984C15.2185 0.0145846 15.0812 0.0612695 14.9614 0.13911C14.8417 0.21695 14.7433 0.323484 14.6752 0.449025C14.607 0.574565 14.5714 0.715142 14.5714 0.857972C14.5714 2.28827 13.4303 3.42936 12 3.42936C10.5697 3.42936 9.42861 2.28827 9.42861 0.857972C9.42883 0.64208 9.34758 0.43406 9.20109 0.275469C9.0546 0.116879 8.85367 0.0194004 8.63844 0.00251511ZM7.96043 2.06666C8.49364 3.82715 10.0717 5.14363 12 5.14363C13.9283 5.14363 15.5064 3.82715 16.0396 2.06666L22.2019 4.80546L21.6042 8.98732L19.2404 7.80542C19.1097 7.74009 18.9645 7.70925 18.8185 7.71583C18.6726 7.72241 18.5307 7.76619 18.4064 7.84301C18.2822 7.91983 18.1796 8.02714 18.1084 8.15475C18.0373 8.28237 17.9999 8.42604 17.9999 8.57215V22.2862H6.00008V8.57215C6.00008 8.42604 5.96273 8.28237 5.89158 8.15475C5.82043 8.02714 5.71784 7.91983 5.59355 7.84301C5.46927 7.76619 5.32742 7.72241 5.18146 7.71583C5.03549 7.70925 4.89028 7.74009 4.75959 7.80542L2.39578 8.98732L1.79813 4.80546L7.96043 2.06666Z" fill="white"/>
</svg>
