<svg width="22" height="22" viewBox="0 0 22 22" fill="none" xmlns="http://www.w3.org/2000/svg">
<path d="M3.00216 15.6541L1.36534 17.2877C1.17773 17.4549 1.05355 17.6818 1.01377 17.9299C0.973984 18.1781 1.02103 18.4324 1.14696 18.6499L3.42812 20.8272C3.73299 21.1429 4.34382 21.0132 4.82384 20.5656L6.36227 18.9223M17.6556 15.6649C14.8631 17.919 12.0587 17.2769 10.6619 17.2769C9.26507 17.2769 9.1775 17.5601 8.1526 18.6499C8.02338 18.7885 7.86745 18.8996 7.69421 18.9764C7.52275 19.0543 7.33659 19.0947 7.14824 19.0947C6.95989 19.0947 6.77373 19.0543 6.60228 18.9764C6.42545 18.9004 6.26612 18.7889 6.13415 18.6488L3.32973 15.8725C3.18704 15.7339 3.07538 15.5666 3.00216 15.3817C2.92843 15.2058 2.89128 15.0167 2.89296 14.826C2.88904 14.6357 2.926 14.4468 3.00135 14.272C3.0767 14.0973 3.18868 13.9407 3.32973 13.813C4.42058 12.7891 4.72654 12.5935 4.72654 11.2972C4.72654 9.66471 3.95138 6.57055 7.14824 3.36828C7.92422 2.58814 8.85279 1.97645 9.8759 1.57146C10.9163 1.1587 12.0309 0.965821 13.1495 1.00496C14.274 1.03896 15.379 1.30753 16.3936 1.79344C17.4083 2.27935 18.3102 2.97189 19.0416 3.82668C20.1383 5.1056 20.8106 6.69364 20.9655 8.37125C21.1205 10.0489 20.7504 11.7332 19.9065 13.1913C19.346 14.16 18.5911 15.0022 17.6891 15.6649H17.6556Z" stroke="white" stroke-linecap="round" stroke-linejoin="round"/>
<path d="M14.5113 4.37622L9.03756 8.99584C8.99308 9.02961 8.95808 9.0743 8.93594 9.12557C8.91187 9.17826 8.89864 9.23524 8.89702 9.29314C8.90818 9.34755 8.93312 9.39818 8.96945 9.44018C9.0145 9.46242 9.06409 9.47389 9.11432 9.47369L12.2636 10.2089L10.9014 13.8652C10.8911 13.8864 10.8859 13.9097 10.8863 13.9333L10.9425 13.9463L11.0095 13.9614L16.4832 9.34179C16.5293 9.34574 16.5755 9.33618 16.6162 9.3143C16.6569 9.29241 16.6903 9.25914 16.7124 9.21855C16.7406 9.16732 16.7544 9.10942 16.7524 9.05097C16.7413 8.99657 16.7163 8.94594 16.68 8.90394C16.6346 8.88154 16.5846 8.87006 16.534 8.87043L13.3966 8.13851L14.6637 4.52974C14.6715 4.52065 14.6771 4.50983 14.6799 4.49818C14.6827 4.48653 14.6827 4.47437 14.6799 4.46271L14.6118 4.44757L14.5113 4.37622Z" stroke="white" stroke-linecap="round" stroke-linejoin="round"/>
</svg>
