<svg width="26" height="26" viewBox="0 0 26 26" fill="none" xmlns="http://www.w3.org/2000/svg">
<path d="M25 22.1134V11.6366C24.9999 11.0109 24.8571 10.3934 24.5823 9.83089C24.3076 9.26838 23.9081 8.77563 23.4141 8.38997L14.6981 1.58458C14.2133 1.20581 13.6152 1 12.9993 1C12.3835 1 11.7854 1.20581 11.3005 1.58458L2.58448 8.38859C2.09062 8.77454 1.6913 9.26757 1.41677 9.83032C1.14225 10.3931 0.999723 11.0108 1 11.6366V22.1134C1 23.7079 2.29514 25 3.89339 25H9.36328V14.0517H16.6353V25H22.1052C22.8726 25 23.6086 24.6959 24.1512 24.1545C24.6938 23.6132 25 22.879 25 22.1134Z" stroke="white" stroke-width="1.5" stroke-linecap="round" stroke-linejoin="round"/>
</svg>
