<svg width="21" height="26" viewBox="0 0 21 26" fill="none" xmlns="http://www.w3.org/2000/svg">
<path d="M18.8921 20.2003C19.9901 21.842 20.4534 22.844 20.0645 23.6805C20.0165 23.7829 19.9605 23.8817 19.8965 23.9769C19.2065 25.0005 17.4244 25.0005 13.8602 25.0005H7.33897C3.77475 25.0005 1.99384 25.0005 1.3038 23.9769C1.24085 23.8822 1.1847 23.7831 1.13579 23.6805C0.746968 22.844 1.2102 21.842 2.30706 20.2003M14.1998 9.99963C14.1998 10.9545 13.8205 11.8702 13.1453 12.5454C12.4701 13.2205 11.5544 13.5999 10.5996 13.5999C9.64473 13.5999 8.729 13.2205 8.05383 12.5454C7.37865 11.8702 6.99935 10.9545 6.99935 9.99963C6.99935 9.0448 7.37865 8.12907 8.05383 7.45389C8.729 6.77872 9.64473 6.39941 10.5996 6.39941C11.5544 6.39941 12.4701 6.77872 13.1453 7.45389C13.8205 8.12907 14.1998 9.0448 14.1998 9.99963Z" stroke="white" stroke-width="1.5" stroke-linecap="round" stroke-linejoin="round"/>
<path d="M10.5992 1C15.4703 1 19.5997 5.11385 19.5997 10.105C19.5997 15.1753 15.4031 18.7335 11.5268 21.1528C11.2446 21.3152 10.9248 21.4006 10.5992 21.4006C10.2736 21.4006 9.95372 21.3152 9.67152 21.1528C5.80249 18.7095 1.59863 15.1933 1.59863 10.105C1.59863 5.11385 5.72808 1 10.5992 1Z" stroke="white" stroke-width="1.5" stroke-linecap="round" stroke-linejoin="round"/>
</svg>
