<svg width="23" height="22" viewBox="0 0 23 22" fill="none" xmlns="http://www.w3.org/2000/svg">
<path d="M3.79898 15.5198L2.39535 19.6081L6.85549 18.4599L7.32836 18.6942C8.3919 19.2212 9.58002 19.5361 10.84 19.5822C11.1242 20.094 11.4739 20.5644 11.8777 20.9822C11.6415 20.9988 11.4031 21.0072 11.1627 21.0072C9.55938 21.0072 8.04364 20.6325 6.69824 19.9658L2.16032 21.1341C1.31849 21.3508 0.573362 20.5446 0.855636 19.7224L2.25718 15.6401C1.51491 14.2369 1.09459 12.6371 1.09459 10.9392C1.09459 5.37872 5.60221 0.871094 11.1627 0.871094C16.7231 0.871094 21.2307 5.37872 21.2307 10.9392C21.2307 11.1222 21.2258 11.3041 21.2162 11.4847C20.7919 11.0882 20.3158 10.7465 19.7991 10.4708C19.5558 5.91195 15.7822 2.29026 11.1627 2.29026C6.386 2.29026 2.51375 6.16251 2.51375 10.9392C2.51375 12.4003 2.87492 13.7728 3.51165 14.9766L3.79898 15.5198Z" fill="white"/>
<path fill-rule="evenodd" clip-rule="evenodd" d="M22.2385 16.3527C22.2385 19.4291 19.7446 21.923 16.6682 21.923C13.5918 21.923 11.0979 19.4291 11.0979 16.3527C11.0979 13.2763 13.5918 10.7824 16.6682 10.7824C19.7446 10.7824 22.2385 13.2763 22.2385 16.3527ZM16.4493 12.9668C16.2685 12.9668 16.1218 13.1135 16.1218 13.2943V15.9593H13.4569C13.276 15.9593 13.1294 16.106 13.1294 16.2868V16.5716C13.1294 16.7524 13.276 16.8991 13.4569 16.8991H16.1218V19.5646C16.1218 19.7455 16.2685 19.8921 16.4493 19.8921H16.7341C16.915 19.8921 17.0616 19.7455 17.0616 19.5646V16.8991H19.7271C19.908 16.8991 20.0546 16.7524 20.0546 16.5716V16.2868C20.0546 16.106 19.908 15.9593 19.7271 15.9593H17.0616V13.2943C17.0616 13.1135 16.915 12.9668 16.7341 12.9668H16.4493Z" fill="white"/>
</svg>
