<svg width="123" height="37" viewBox="0 0 123 37" fill="none" xmlns="http://www.w3.org/2000/svg">
<path d="M1.1 28.04C1.1 26.2 1.09333 24.4733 1.08 22.86C1.08 21.2333 1.07333 19.76 1.06 18.44C1.06 17.12 1.05333 15.9933 1.04 15.06C1.02667 14.1267 1.01333 13.44 1 13C1.78667 12.8933 2.5 12.8133 3.14 12.76C3.79333 12.7067 4.40667 12.68 4.98 12.68C6.55333 12.68 7.90667 12.8733 9.04 13.26C10.1867 13.6333 11.0667 14.18 11.68 14.9C12.2933 15.6067 12.6 16.4533 12.6 17.44C12.6 18.48 12.26 19.4133 11.58 20.24C10.9133 21.0667 9.98 21.7267 8.78 22.22C7.59333 22.7133 6.22 22.9867 4.66 23.04C4.67333 23.8667 4.68 24.6933 4.68 25.52C4.69333 26.3467 4.7 27.16 4.7 27.96C4.24667 27.9867 3.72667 28.0067 3.14 28.02C2.56667 28.0333 1.88667 28.04 1.1 28.04ZM4.38 14.26C4.43333 14.9933 4.48 15.9933 4.52 17.26C4.57333 18.5267 4.61333 19.9133 4.64 21.42C7.48 21.0333 8.9 19.8467 8.9 17.86C8.9 16.7533 8.49333 15.88 7.68 15.24C6.86667 14.5867 5.76667 14.26 4.38 14.26ZM17.4478 28.1C16.3145 28.1 15.3878 27.8267 14.6678 27.28C13.9611 26.72 13.6078 25.9933 13.6078 25.1C13.6078 24.2867 13.9011 23.5333 14.4878 22.84C15.0878 22.1467 15.9145 21.56 16.9678 21.08C18.0211 20.5867 19.2278 20.2467 20.5878 20.06C20.1078 18.8867 19.4478 18.3 18.6078 18.3C18.1011 18.3 17.4478 18.4933 16.6478 18.88C15.8478 19.2667 15.0345 19.7733 14.2078 20.4L13.6078 18.4C15.5945 17.2667 17.4745 16.7 19.2478 16.7C20.6345 16.7 21.7478 17.08 22.5878 17.84C23.4278 18.5867 24.0411 19.7867 24.4278 21.44C24.8145 23.08 25.0078 25.2533 25.0078 27.96C24.7545 27.9733 24.3011 27.9867 23.6478 28C23.0078 28.0267 22.3145 28.04 21.5678 28.04C21.5678 27.6133 21.5611 27.1933 21.5478 26.78C20.1745 27.66 18.8078 28.1 17.4478 28.1ZM16.9078 24.96C16.9078 25.3733 17.0678 25.7 17.3878 25.94C17.7211 26.18 18.1611 26.3 18.7078 26.3C19.6678 26.3 20.5945 25.8867 21.4878 25.06C21.4078 23.6467 21.2545 22.4533 21.0278 21.48C20.5078 21.5867 20.0011 21.76 19.5078 22C19.0278 22.24 18.5878 22.5267 18.1878 22.86C17.8011 23.18 17.4878 23.5267 17.2478 23.9C17.0211 24.26 16.9078 24.6133 16.9078 24.96ZM32.1208 28.1C31.5741 28.1 30.9541 28.06 30.2608 27.98C29.5674 27.8867 28.8808 27.7733 28.2008 27.64C27.5208 27.4933 26.9208 27.34 26.4008 27.18L27.2808 24.76C27.7874 25.0533 28.3474 25.3333 28.9608 25.6C29.5874 25.8533 30.2008 26.06 30.8008 26.22C31.4008 26.38 31.9141 26.46 32.3408 26.46C32.9141 26.46 33.3341 26.3333 33.6008 26.08C33.8674 25.8133 34.0008 25.5333 34.0008 25.24C34.0008 24.8933 33.8541 24.6067 33.5608 24.38C33.2674 24.14 32.8808 23.9333 32.4008 23.76C31.9341 23.5733 31.4274 23.4 30.8808 23.24C30.3874 23.0933 29.8941 22.9333 29.4008 22.76C28.9074 22.5867 28.4541 22.3867 28.0408 22.16C27.6408 21.92 27.3141 21.6333 27.0608 21.3C26.8208 20.9667 26.7008 20.5667 26.7008 20.1C26.7008 19.5 26.9141 18.9467 27.3408 18.44C27.7674 17.92 28.3741 17.5 29.1608 17.18C29.9474 16.86 30.8808 16.7 31.9608 16.7C32.8408 16.7 33.7274 16.8133 34.6208 17.04C35.5274 17.2667 36.3541 17.5867 37.1008 18L35.9808 19.9C35.2474 19.4333 34.5341 19.0533 33.8408 18.76C33.1608 18.4533 32.5141 18.3 31.9008 18.3C31.3141 18.3 30.8674 18.4267 30.5608 18.68C30.2541 18.9333 30.1008 19.1933 30.1008 19.46C30.1008 19.7133 30.2208 19.9267 30.4608 20.1C30.7008 20.26 31.0208 20.4 31.4208 20.52C31.8341 20.64 32.2741 20.76 32.7408 20.88C33.2608 21 33.7941 21.1467 34.3408 21.32C34.8874 21.48 35.3941 21.6867 35.8608 21.94C36.3274 22.1933 36.7008 22.52 36.9808 22.92C37.2608 23.3067 37.4008 23.7933 37.4008 24.38C37.4008 25.1 37.1741 25.74 36.7208 26.3C36.2674 26.86 35.6408 27.3 34.8408 27.62C34.0541 27.94 33.1474 28.1 32.1208 28.1ZM44.4278 28.1C43.6411 28.1 42.8945 27.9533 42.1878 27.66C41.4945 27.3533 40.8745 26.94 40.3278 26.42C39.7945 25.9 39.3745 25.3 39.0678 24.62C38.7611 23.9267 38.6078 23.2 38.6078 22.44C38.6078 21.6533 38.7611 20.92 39.0678 20.24C39.3878 19.5467 39.8278 18.9333 40.3878 18.4C40.9478 17.8667 41.5878 17.4533 42.3078 17.16C43.0411 16.8533 43.8211 16.7 44.6478 16.7C46.3811 16.7 48.0345 17.42 49.6078 18.86L47.7078 20.94C47.2811 20.1533 46.7345 19.52 46.0678 19.04C45.4145 18.5467 44.7678 18.3 44.1278 18.3C43.4345 18.3 42.8745 18.5933 42.4478 19.18C42.0345 19.7667 41.8278 20.5533 41.8278 21.54C41.8278 22.4333 41.9811 23.2533 42.2878 24C42.6078 24.7467 43.0345 25.3467 43.5678 25.8C44.1011 26.24 44.6811 26.46 45.3078 26.46C45.8545 26.46 46.3945 26.2867 46.9278 25.94C47.4745 25.5933 47.9278 25.1267 48.2878 24.54L49.5078 25.74C47.9345 27.3133 46.2411 28.1 44.4278 28.1ZM54.2447 28.1C53.1114 28.1 52.1847 27.8267 51.4647 27.28C50.758 26.72 50.4047 25.9933 50.4047 25.1C50.4047 24.2867 50.698 23.5333 51.2847 22.84C51.8847 22.1467 52.7114 21.56 53.7647 21.08C54.818 20.5867 56.0247 20.2467 57.3847 20.06C56.9047 18.8867 56.2447 18.3 55.4047 18.3C54.898 18.3 54.2447 18.4933 53.4447 18.88C52.6447 19.2667 51.8314 19.7733 51.0047 20.4L50.4047 18.4C52.3914 17.2667 54.2714 16.7 56.0447 16.7C57.4314 16.7 58.5447 17.08 59.3847 17.84C60.2247 18.5867 60.838 19.7867 61.2247 21.44C61.6114 23.08 61.8047 25.2533 61.8047 27.96C61.5514 27.9733 61.098 27.9867 60.4447 28C59.8047 28.0267 59.1114 28.04 58.3647 28.04C58.3647 27.6133 58.358 27.1933 58.3447 26.78C56.9714 27.66 55.6047 28.1 54.2447 28.1ZM53.7047 24.96C53.7047 25.3733 53.8647 25.7 54.1847 25.94C54.518 26.18 54.958 26.3 55.5047 26.3C56.4647 26.3 57.3914 25.8867 58.2847 25.06C58.2047 23.6467 58.0514 22.4533 57.8247 21.48C57.3047 21.5867 56.798 21.76 56.3047 22C55.8247 22.24 55.3847 22.5267 54.9847 22.86C54.598 23.18 54.2847 23.5267 54.0447 23.9C53.818 24.26 53.7047 24.6133 53.7047 24.96ZM66.8423 12.86C66.8157 13.62 66.7957 14.3667 66.7823 15.1C66.769 15.8333 66.7623 16.5133 66.7623 17.14C66.7623 19.2467 66.8223 20.9733 66.9423 22.32C67.0757 23.6533 67.2757 24.68 67.5423 25.4C67.809 26.1067 68.1623 26.5733 68.6023 26.8L67.2023 28.4C66.4823 28.32 65.8757 28.0867 65.3823 27.7C64.9023 27.3 64.5157 26.7067 64.2223 25.92C63.929 25.12 63.7157 24.0867 63.5823 22.82C63.4623 21.5533 63.4023 20.0067 63.4023 18.18C63.4023 17.42 63.409 16.5933 63.4223 15.7C63.449 14.7933 63.4757 13.8733 63.5023 12.94C63.889 12.9133 64.349 12.8933 64.8823 12.88C65.4157 12.8667 66.069 12.86 66.8423 12.86Z" fill="#00BF63"/>
<path d="M83.72 28.04C83.3867 28.04 82.9733 28.0333 82.48 28.02C82 28.02 81.5067 28.0133 81 28C80.5067 27.9867 80.0733 27.9733 79.7 27.96C79.7 27.36 79.7 26.6267 79.7 25.76C79.7133 24.88 79.72 23.94 79.72 22.94C79.7333 21.9267 79.74 20.92 79.74 19.92C79.7533 18.9067 79.7667 17.96 79.78 17.08C79.7933 16.1867 79.8067 15.4267 79.82 14.8C78.82 14.8133 77.8467 14.8267 76.9 14.84C75.9533 14.84 75.0867 14.84 74.3 14.84L74.38 12.84C75.2333 12.84 76.1533 12.8467 77.14 12.86C78.1267 12.86 79.1333 12.8667 80.16 12.88C81.1867 12.88 82.18 12.8867 83.14 12.9C84.1133 12.9 85.0067 12.9067 85.82 12.92C86.6333 12.92 87.32 12.9267 87.88 12.94C88.4533 12.94 88.84 12.9467 89.04 12.96L89.1 14.64C88.3667 14.6667 87.5267 14.6933 86.58 14.72C85.6333 14.7333 84.64 14.7467 83.6 14.76C83.6133 15.36 83.6267 16.08 83.64 16.92C83.6533 17.76 83.66 18.6733 83.66 19.66C83.6733 20.6333 83.68 21.62 83.68 22.62C83.6933 23.62 83.7 24.5867 83.7 25.52C83.7133 26.4533 83.72 27.2933 83.72 28.04ZM91.6867 28.1C90.6067 28.1 89.6334 27.8533 88.7667 27.36C87.9134 26.8533 87.2334 26.1733 86.7267 25.32C86.2334 24.4533 85.9867 23.4733 85.9867 22.38C85.9867 21.2867 86.2267 20.3133 86.7067 19.46C87.2001 18.6067 87.8667 17.9333 88.7067 17.44C89.5601 16.9467 90.5267 16.7 91.6067 16.7C92.6201 16.7 93.5267 16.9267 94.3267 17.38C95.1401 17.82 95.7934 18.44 96.2867 19.24C96.7934 20.04 97.0934 20.98 97.1867 22.06L89.2467 23.54C89.5001 24.4067 89.9001 25.1133 90.4467 25.66C90.9934 26.1933 91.6067 26.46 92.2867 26.46C92.9134 26.46 93.5334 26.2467 94.1467 25.82C94.7601 25.38 95.2334 24.82 95.5667 24.14L96.9867 25.34C96.3334 26.22 95.5467 26.9 94.6267 27.38C93.7067 27.86 92.7267 28.1 91.6867 28.1ZM88.9867 21.58C88.9867 21.66 88.9867 21.7267 88.9867 21.78L93.6467 21.14C93.5534 20.2867 93.2801 19.6 92.8267 19.08C92.3734 18.56 91.8201 18.3 91.1667 18.3C90.4867 18.3 89.9534 18.5933 89.5667 19.18C89.1801 19.7533 88.9867 20.5533 88.9867 21.58ZM104.209 28.1C103.422 28.1 102.676 27.9533 101.969 27.66C101.276 27.3533 100.656 26.94 100.109 26.42C99.5757 25.9 99.1557 25.3 98.8491 24.62C98.5424 23.9267 98.3891 23.2 98.3891 22.44C98.3891 21.6533 98.5424 20.92 98.8491 20.24C99.1691 19.5467 99.6091 18.9333 100.169 18.4C100.729 17.8667 101.369 17.4533 102.089 17.16C102.822 16.8533 103.602 16.7 104.429 16.7C106.162 16.7 107.816 17.42 109.389 18.86L107.489 20.94C107.062 20.1533 106.516 19.52 105.849 19.04C105.196 18.5467 104.549 18.3 103.909 18.3C103.216 18.3 102.656 18.5933 102.229 19.18C101.816 19.7667 101.609 20.5533 101.609 21.54C101.609 22.4333 101.762 23.2533 102.069 24C102.389 24.7467 102.816 25.3467 103.349 25.8C103.882 26.24 104.462 26.46 105.089 26.46C105.636 26.46 106.176 26.2867 106.709 25.94C107.256 25.5933 107.709 25.1267 108.069 24.54L109.289 25.74C107.716 27.3133 106.022 28.1 104.209 28.1ZM113.926 28.04C113.433 28.04 112.873 28.0267 112.246 28C111.633 27.9867 111.113 27.9733 110.686 27.96C110.673 27.6533 110.659 27.1733 110.646 26.52C110.646 25.8533 110.639 25.0733 110.626 24.18C110.626 23.2867 110.619 22.34 110.606 21.34C110.606 20.3267 110.599 19.3133 110.586 18.3C110.586 17.2733 110.586 16.3 110.586 15.38C110.586 14.4467 110.586 13.6333 110.586 12.94C110.879 12.9267 111.233 12.9133 111.646 12.9C112.059 12.8867 112.479 12.88 112.906 12.88C113.346 12.8667 113.719 12.86 114.026 12.86C114.026 13.4867 114.026 14.22 114.026 15.06C114.026 15.8867 114.019 16.76 114.006 17.68C114.473 17.3733 114.959 17.1333 115.466 16.96C115.986 16.7867 116.493 16.7 116.986 16.7C118.559 16.7 119.719 17.6133 120.466 19.44C121.213 21.2667 121.586 24.1067 121.586 27.96C121.253 27.9867 120.826 28.0067 120.306 28.02C119.786 28.0333 119.066 28.04 118.146 28.04C118.146 21.5467 117.446 18.3 116.046 18.3C115.699 18.3 115.339 18.4733 114.966 18.82C114.606 19.1667 114.286 19.6133 114.006 20.16C113.993 21.08 113.979 21.9733 113.966 22.84C113.966 23.6933 113.959 24.48 113.946 25.2C113.946 25.92 113.939 26.5333 113.926 27.04C113.926 27.5333 113.926 27.8667 113.926 28.04Z" fill="#0097B2"/>
</svg>
