<svg width="14" height="26" viewBox="0 0 14 26" fill="none" xmlns="http://www.w3.org/2000/svg">
<path d="M4.65217 1H8.82609M1 10.913H1.52174L2.59339 11.0915C5.33834 11.5483 8.13992 11.5483 10.8849 11.0915L11.9565 10.913H12.4783M1 18.2174H1.52174L2.59339 18.039C5.33834 17.5821 8.13992 17.5821 10.8849 18.039L11.9565 18.2174H12.4783M8.30435 4.13043H5.17391C3.92002 4.75791 2.86549 5.72194 2.12834 6.91466C1.39118 8.10737 1.0005 9.4817 1 10.8838V22.913C1 23.4665 1.21988 23.9974 1.61126 24.3887C2.00264 24.7801 2.53346 25 3.08696 25H10.3913C10.9448 25 11.4756 24.7801 11.867 24.3887C12.2584 23.9974 12.4783 23.4665 12.4783 22.913V10.8838C12.4778 9.4817 12.0871 8.10737 11.3499 6.91466C10.6128 5.72194 9.55824 4.75791 8.30435 4.13043Z" stroke="#FFF9F9" stroke-width="1.38515"/>
</svg>
