<svg width="24" height="24" viewBox="0 0 24 24" fill="none" xmlns="http://www.w3.org/2000/svg">
<path d="M16.8 9.60005C16.8 10.8731 16.2943 12.094 15.3941 12.9942C14.4939 13.8943 13.273 14.4 12 14.4C10.7269 14.4 9.50604 13.8943 8.60587 12.9942C7.70569 12.094 7.19998 10.8731 7.19998 9.60005C7.19998 8.32701 7.70569 7.10611 8.60587 6.20594C9.50604 5.30576 10.7269 4.80005 12 4.80005C13.273 4.80005 14.4939 5.30576 15.3941 6.20594C16.2943 7.10611 16.8 8.32701 16.8 9.60005Z" fill="#6BB200"/>
<path fill-rule="evenodd" clip-rule="evenodd" d="M11.5104 23.9904C5.1102 23.7336 0 18.4632 0 12C0 5.3724 5.3724 0 12 0C18.6276 0 24 5.3724 24 12C24 18.6276 18.6276 24 12 24H11.8356C11.7268 24 11.6184 23.9968 11.5104 23.9904ZM4.2996 19.572C4.20988 19.3143 4.17934 19.0398 4.21025 18.7687C4.24116 18.4976 4.33272 18.237 4.47815 18.0062C4.62357 17.7753 4.81912 17.5802 5.05027 17.4353C5.28143 17.2903 5.54226 17.1993 5.8134 17.169C10.491 16.6512 13.5378 16.698 18.1926 17.1798C18.4641 17.2081 18.7256 17.2979 18.9571 17.4425C19.1886 17.5871 19.3841 17.7827 19.5286 18.0142C19.6732 18.2458 19.763 18.5073 19.7912 18.7788C19.8194 19.0503 19.7853 19.3247 19.6914 19.581C21.6865 17.5626 22.8037 14.838 22.8 12C22.8 6.0354 17.9646 1.2 12 1.2C6.0354 1.2 1.2 6.0354 1.2 12C1.2 14.9496 2.3826 17.6232 4.2996 19.572Z" fill="#6BB200"/>
</svg>
