<svg width="27" height="27" viewBox="0 0 27 27" fill="none" xmlns="http://www.w3.org/2000/svg">
<path d="M1.5 6.83333V4.16667C1.5 3.45942 1.78095 2.78115 2.28105 2.28105C2.78115 1.78095 3.45942 1.5 4.16667 1.5H6.83333M20.1667 1.5H22.8333C23.5406 1.5 24.2189 1.78095 24.719 2.28105C25.219 2.78115 25.5 3.45942 25.5 4.16667V6.83333M25.5 20.1667V22.8333C25.5 23.5406 25.219 24.2189 24.719 24.719C24.2189 25.219 23.5406 25.5 22.8333 25.5H20.1667M6.83333 25.5H4.16667C3.45942 25.5 2.78115 25.219 2.28105 24.719C1.78095 24.2189 1.5 23.5406 1.5 22.8333V20.1667M6.83333 13.5H20.1667H6.83333Z" fill="#AEE55B"/>
<path d="M1.5 6.83333V4.16667C1.5 3.45942 1.78095 2.78115 2.28105 2.28105C2.78115 1.78095 3.45942 1.5 4.16667 1.5H6.83333M20.1667 1.5H22.8333C23.5406 1.5 24.2189 1.78095 24.719 2.28105C25.219 2.78115 25.5 3.45942 25.5 4.16667V6.83333M25.5 20.1667V22.8333C25.5 23.5406 25.219 24.2189 24.719 24.719C24.2189 25.219 23.5406 25.5 22.8333 25.5H20.1667M6.83333 25.5H4.16667C3.45942 25.5 2.78115 25.219 2.28105 24.719C1.78095 24.2189 1.5 23.5406 1.5 22.8333V20.1667M6.83333 13.5H20.1667H6.83333Z" fill="#AEE55B"/>
<path d="M1.5 6.83333V4.16667C1.5 3.45942 1.78095 2.78115 2.28105 2.28105C2.78115 1.78095 3.45942 1.5 4.16667 1.5H6.83333M20.1667 1.5H22.8333C23.5406 1.5 24.2189 1.78095 24.719 2.28105C25.219 2.78115 25.5 3.45942 25.5 4.16667V6.83333M25.5 20.1667V22.8333C25.5 23.5406 25.219 24.2189 24.719 24.719C24.2189 25.219 23.5406 25.5 22.8333 25.5H20.1667M6.83333 25.5H4.16667C3.45942 25.5 2.78115 25.219 2.28105 24.719C1.78095 24.2189 1.5 23.5406 1.5 22.8333V20.1667M6.83333 13.5H20.1667" stroke="#4C862D" stroke-width="2" stroke-linecap="round" stroke-linejoin="round"/>
</svg>
